<?xml version="1.0" standalone="no"?>
<!DOCTYPE svg PUBLIC "-//W3C//DTD SVG 20010904//EN"
 "http://www.w3.org/TR/2001/REC-SVG-20010904/DTD/svg10.dtd">
<svg version="1.0" xmlns="http://www.w3.org/2000/svg"
 width="540.000000pt" height="540.000000pt" viewBox="0 0 540.000000 540.000000"
 preserveAspectRatio="xMidYMid meet">
<metadata>
Created by potrace 1.14, written by Peter Selinger 2001-2017
</metadata>
<g transform="translate(0.000000,540.000000) scale(0.100000,-0.100000)"
fill="#000000" stroke="none">
<path d="M2688 4695 c-2 -2 -27 -6 -56 -9 -53 -6 -153 -35 -202 -59 -65 -31
-162 -103 -216 -159 -162 -172 -228 -413 -179 -648 31 -148 97 -265 216 -382
l88 -87 -45 -26 c-63 -37 -173 -148 -218 -219 -39 -61 -90 -178 -101 -231 -39
-192 -19 -356 62 -519 55 -108 126 -188 265 -293 57 -43 110 -83 118 -90 8 -7
105 -81 215 -165 220 -167 245 -191 276 -258 23 -46 29 -143 15 -204 -8 -33
-52 -100 -88 -133 -74 -69 -210 -87 -308 -42 -31 14 -62 32 -70 40 -8 8 -49
40 -90 72 l-74 58 -153 -153 c-84 -84 -153 -155 -153 -158 0 -3 21 -22 48 -42
26 -20 58 -46 72 -57 14 -11 30 -24 35 -29 176 -142 315 -196 510 -196 246 -1
438 93 583 285 99 131 144 280 138 459 -4 128 -31 228 -88 330 -48 86 -143
197 -204 236 -13 9 -24 19 -24 23 0 3 18 16 39 28 58 34 157 128 205 197 248
357 161 811 -204 1066 -19 13 -37 27 -40 30 -3 3 -50 39 -105 80 -55 41 -102
77 -105 80 -3 3 -59 46 -124 95 -230 174 -259 213 -260 346 -1 65 3 84 29 134
34 66 101 125 165 144 57 17 149 13 196 -8 39 -18 58 -31 187 -128 31 -24 59
-43 63 -43 3 0 74 69 156 152 l149 153 -24 20 c-13 11 -41 34 -62 50 -21 17
-43 35 -49 40 -6 6 -40 32 -76 59 -106 79 -230 134 -341 151 -40 6 -167 14
-171 10z m114 -1721 c63 -21 131 -83 164 -151 70 -143 5 -322 -143 -394 -66
-32 -178 -32 -246 0 -61 28 -116 83 -147 146 -33 68 -33 181 -2 242 77 149
218 208 374 157z"/>
<path d="M817 3258 l-559 -561 539 -540 c296 -296 547 -549 558 -561 l20 -23
157 155 157 156 -402 404 c-221 222 -401 408 -400 412 2 5 183 190 402 412
l400 402 -154 153 c-84 84 -155 153 -157 153 -2 0 -254 -253 -561 -562z"/>
<path d="M3862 3667 l-154 -154 407 -408 407 -408 -406 -406 -406 -406 154
-156 155 -156 555 556 c306 306 556 562 556 568 0 9 -1102 1123 -1112 1123 -2
0 -72 -69 -156 -153z"/>
</g>
</svg>
