<svg width="621" height="143" viewBox="0 0 621 143" fill="none" xmlns="http://www.w3.org/2000/svg">
  <path fill-rule="evenodd" clip-rule="evenodd"
    d="M145.602 71.289L145.61 71.2807L116.777 42.4473L108.82 50.4037L129.709 71.2922L108.824 92.1774L116.78 100.134L145.613 71.3005L145.602 71.289Z"
    fill="#C42323" />
  <path fill-rule="evenodd" clip-rule="evenodd"
    d="M79.5897 44.7822C76.3355 42.2431 75.6706 37.544 78.2229 34.2729C80.7546 31.0281 85.4191 30.5122 88.6702 32.9823L93.2101 36.5245L101.181 28.5362L95.4723 24.0176L95.4676 24.0236C87.2791 17.8004 75.7159 19.0994 69.3692 26.9401L68.9571 27.4683C62.8459 35.5967 64.4729 47.251 72.6721 53.6482L73.6537 54.4349C66.9321 58.0864 62.7814 65.5877 63.7753 73.6397C64.4854 79.3916 67.6736 84.2325 72.1375 87.224L86.0261 97.7901L86.0201 97.7978C89.2743 100.337 89.9403 105.037 87.3881 108.308C84.8564 111.553 80.1919 112.069 76.9408 109.598L72.4008 106.056L64.4295 114.045L70.1387 118.563L70.1434 118.557C78.3318 124.78 89.8951 123.481 96.2417 115.641L96.6538 115.113C102.765 106.984 101.138 95.3299 92.9389 88.9326L91.9561 88.145C98.6761 84.4929 102.826 76.9926 101.832 68.9418C101.124 63.2069 97.9524 58.3777 93.5093 55.3841L79.5849 44.7907L79.5897 44.7822ZM83.7343 78.8304C87.9583 78.309 90.8923 74.4811 90.383 70.3551C89.8737 66.229 86.0968 63.2295 81.8728 63.751C77.6488 64.2724 74.7147 68.1003 75.2241 72.2264C75.7334 76.3524 79.5103 79.3519 83.7343 78.8304Z"
    fill="#C42323" />
  <path fill-rule="evenodd" clip-rule="evenodd"
    d="M20.0114 71.289L20.0031 71.2807L48.8365 42.4473L56.793 50.4037L35.9045 71.2922L56.7898 92.1774L48.8333 100.134L19.9999 71.3005L20.0114 71.289Z"
    fill="#C42323" />
  <path
    d="M229.413 73.2549C229.413 58.1948 219.7 47.7183 205.513 47.7183C191.326 47.7183 181.613 58.1948 181.613 73.2549C181.613 88.2058 191.326 98.6824 205.513 98.6824C219.7 98.6824 229.413 88.2058 229.413 73.2549ZM215.99 73.2549C215.99 81.3306 212.279 87.2236 205.513 87.2236C198.747 87.2236 195.036 81.3306 195.036 73.2549C195.036 65.0701 198.747 59.177 205.513 59.177C212.279 59.177 215.99 65.0701 215.99 73.2549Z"
    fill="#240B36" />
  <path
    d="M248.215 93.4441C249.961 96.1724 254.435 98.6824 260.328 98.6824C275.498 98.6824 286.411 85.4776 286.411 68.8897C286.411 56.9944 280.19 47.7183 268.077 47.7183C262.838 47.7183 257.927 50.3374 255.199 53.3931L256.072 48.8096H242.54L230.754 115.598H244.286L248.215 93.4441ZM253.017 65.834C255.308 62.4509 258.801 59.5044 263.711 59.5044C269.495 59.5044 272.66 63.8696 272.66 69.6536C272.66 79.5845 267.422 86.8963 259.019 86.8963C254.544 86.8963 251.38 84.6045 250.397 81.2214L253.017 65.834Z"
    fill="#240B36" />
  <path
    d="M324.759 81.658C323.667 85.8049 320.284 87.7693 315.701 87.7693C309.699 87.7693 305.552 83.4041 305.115 76.0923H337.636V71.9453C337.636 57.6492 329.779 47.7183 315.483 47.7183C301.841 47.7183 292.02 58.5222 292.02 73.2549C292.02 88.315 301.514 98.6824 315.701 98.6824C327.924 98.6824 335.563 92.0254 337.309 81.658H324.759ZM315.592 58.7405C321.157 58.7405 324.213 62.7783 324.322 67.9075H305.443C306.643 61.9053 310.354 58.7405 315.592 58.7405Z"
    fill="#240B36" />
  <path
    d="M346.234 97.5911H359.767V66.707C360.858 62.4509 364.459 59.9409 368.606 59.9409C373.954 59.9409 376.573 63.4331 376.573 68.5623V97.5911H390.105V65.7249C390.105 54.9209 383.885 47.7183 372.862 47.7183C367.188 47.7183 362.386 50.2283 359.767 53.2839V48.8096H346.234V97.5911Z"
    fill="#240B36" />
  <path
    d="M600.072 97.5911V66.4888C600.072 54.8118 592.542 47.7183 579.555 47.7183C568.424 47.7183 560.457 54.4844 559.039 63.324H571.916C573.007 60.4866 575.299 58.7405 579.119 58.7405C584.575 58.7405 587.085 62.1235 587.085 66.2705V69.8718C585.121 68.4531 580.21 67.0344 575.954 67.0344C565.368 67.0344 557.074 73.364 557.074 82.6402C557.074 92.7893 565.368 98.4641 575.19 98.4641C580.537 98.4641 585.448 96.6089 587.085 94.9719V97.5911H600.072ZM587.085 84.2771C585.885 86.8963 582.174 88.5332 578.246 88.5332C573.99 88.5332 569.624 86.7871 569.624 82.531C569.624 78.384 573.99 76.5288 578.246 76.5288C582.174 76.5288 585.885 78.1658 587.085 80.7849V84.2771Z"
    fill="#240B36" />
  <path
    d="M506.867 73.2549C506.867 88.315 516.471 98.6824 530.33 98.6824C542.553 98.6824 550.301 91.5889 551.72 81.1123H538.406C537.642 84.8228 534.696 87.1145 530.33 87.1145C524.11 87.1145 520.29 81.4397 520.29 73.2549C520.29 64.9609 524.11 59.2861 530.33 59.2861C534.696 59.2861 537.642 61.5779 538.406 65.2883H551.72C550.301 54.9209 542.553 47.7183 530.33 47.7183C516.471 47.7183 506.867 58.0857 506.867 73.2549Z"
    fill="#240B36" />
  <path
    d="M459.125 83.0767C460.544 93.0076 468.947 98.6824 480.842 98.6824C492.192 98.6824 500.813 92.7893 500.813 82.8584C500.813 75.4375 496.339 70.7449 487.826 68.6714L477.786 66.3796C474.731 65.6157 473.421 64.5244 473.421 62.5601C473.421 59.5044 476.586 57.9766 479.86 57.9766C484.334 57.9766 486.626 60.05 487.499 62.7783H500.376C498.74 53.6113 491.973 47.7183 479.642 47.7183C468.729 47.7183 460.216 54.0479 460.216 63.5422C460.216 71.7271 465.455 75.5466 472.875 77.2927L482.697 79.4753C486.08 80.3484 487.608 81.4397 487.608 83.6223C487.608 86.7871 484.88 88.4241 480.733 88.4241C476.695 88.4241 473.639 86.5689 472.548 83.0767H459.125Z"
    fill="#240B36" />
  <path
    d="M429.919 28.293C427.955 27.4199 425.554 26.9834 422.389 26.9834C412.021 26.9834 405.146 33.313 405.146 44.3352V50.1192H397.18V61.0322H405.146V98.9007H418.46V61.0322H436.922V50.1192H428.609H418.46V45.2083C418.46 40.7339 420.97 38.4421 425.117 38.4421C426.754 38.4421 428.5 38.7695 429.919 39.7517V28.293Z"
    fill="#240B36" />
  <path d="M450.454 50.1192H436.922V61.0322V98.9007H450.454V50.1192Z" fill="#240B36" />
  <path fill-rule="evenodd" clip-rule="evenodd"
    d="M438.953 43.6973L441.261 30.6191H452.479L450.171 43.6973H438.953Z" fill="#240B36" />
</svg>
