<svg width="581" height="113" viewBox="0 0 581 113" fill="none" xmlns="http://www.w3.org/2000/svg">
  <path
    d="M210.147 53.7173C210.147 38.6572 200.434 28.1807 186.247 28.1807C172.06 28.1807 162.348 38.6572 162.348 53.7173C162.348 68.6682 172.06 79.1448 186.247 79.1448C200.434 79.1448 210.147 68.6682 210.147 53.7173ZM196.724 53.7173C196.724 61.793 193.013 67.6861 186.247 67.6861C179.481 67.6861 175.771 61.793 175.771 53.7173C175.771 45.5325 179.481 39.6394 186.247 39.6394C193.013 39.6394 196.724 45.5325 196.724 53.7173Z"
    fill="#240B36" />
  <path
    d="M228.949 73.9065C230.695 76.6348 235.17 79.1448 241.063 79.1448C256.232 79.1448 267.145 65.94 267.145 49.3521C267.145 37.4568 260.924 28.1807 248.811 28.1807C243.573 28.1807 238.662 30.7998 235.934 33.8555L236.807 29.272H223.274L211.488 96.0601H225.02L228.949 73.9065ZM233.751 46.2964C236.043 42.9133 239.535 39.9668 244.446 39.9668C250.23 39.9668 253.394 44.332 253.394 50.116C253.394 60.0469 248.156 67.3587 239.753 67.3587C235.279 67.3587 232.114 65.0669 231.132 61.6839L233.751 46.2964Z"
    fill="#240B36" />
  <path
    d="M305.493 62.1204C304.402 66.2674 301.019 68.2317 296.435 68.2317C290.433 68.2317 286.286 63.8665 285.85 56.5547H318.37V52.4077C318.37 38.1116 310.513 28.1807 296.217 28.1807C282.576 28.1807 272.754 38.9846 272.754 53.7173C272.754 68.7774 282.248 79.1448 296.435 79.1448C308.658 79.1448 316.297 72.4878 318.043 62.1204H305.493ZM296.326 39.2029C301.892 39.2029 304.947 43.2407 305.057 48.3699H286.177C287.377 42.3677 291.088 39.2029 296.326 39.2029Z"
    fill="#240B36" />
  <path
    d="M326.969 78.0535H340.501V47.1694C341.592 42.9133 345.194 40.4033 349.341 40.4033C354.688 40.4033 357.307 43.8955 357.307 49.0247V78.0535H370.839V46.1873C370.839 35.3833 364.619 28.1807 353.597 28.1807C347.922 28.1807 343.12 30.6907 340.501 33.7463V29.272H326.969V78.0535Z"
    fill="#240B36" />
  <path
    d="M580.802 78.0535V46.9512C580.802 35.2742 573.272 28.1807 560.286 28.1807C549.154 28.1807 541.188 34.9468 539.769 43.7864H552.646C553.738 40.949 556.029 39.2029 559.849 39.2029C565.306 39.2029 567.816 42.5859 567.816 46.7329V50.3342C565.851 48.9155 560.94 47.4968 556.684 47.4968C546.099 47.4968 537.805 53.8264 537.805 63.1026C537.805 73.2517 546.099 78.9265 555.92 78.9265C561.268 78.9265 566.179 77.0713 567.816 75.4344V78.0535H580.802ZM567.816 64.7395C566.615 67.3587 562.905 68.9956 558.976 68.9956C554.72 68.9956 550.355 67.2495 550.355 62.9934C550.355 58.8465 554.72 56.9912 558.976 56.9912C562.905 56.9912 566.615 58.6282 567.816 61.2473V64.7395Z"
    fill="#240B36" />
  <path
    d="M487.602 53.7173C487.602 68.7774 497.205 79.1448 511.065 79.1448C523.287 79.1448 531.036 72.0513 532.454 61.5747H519.14C518.376 65.2852 515.43 67.5769 511.065 67.5769C504.844 67.5769 501.025 61.9021 501.025 53.7173C501.025 45.4234 504.844 39.7485 511.065 39.7485C515.43 39.7485 518.376 42.0403 519.14 45.7507H532.454C531.036 35.3833 523.287 28.1807 511.065 28.1807C497.205 28.1807 487.602 38.5481 487.602 53.7173Z"
    fill="#240B36" />
  <path
    d="M439.859 63.5391C441.278 73.47 449.681 79.1448 461.576 79.1448C472.926 79.1448 481.547 73.2517 481.547 63.3208C481.547 55.8999 477.073 51.2073 468.561 49.1338L458.521 46.8421C455.465 46.0781 454.155 44.9868 454.155 43.0225C454.155 39.9668 457.32 38.439 460.594 38.439C465.069 38.439 467.36 40.5125 468.233 43.2407H481.111C479.474 34.0737 472.708 28.1807 460.376 28.1807C449.463 28.1807 440.951 34.5103 440.951 44.0047C440.951 52.1895 446.189 56.0091 453.61 57.7551L463.432 59.9378C466.815 60.8108 468.342 61.9021 468.342 64.0847C468.342 67.2495 465.614 68.8865 461.467 68.8865C457.429 68.8865 454.374 67.0313 453.282 63.5391H439.859Z"
    fill="#240B36" />
  <path
    d="M410.653 8.75537C408.689 7.88232 406.288 7.4458 403.123 7.4458C392.756 7.4458 385.881 13.7754 385.881 24.7976V30.5816H377.914V41.4947H385.881V79.3631H399.195V41.4947H417.656V30.5816H409.344H399.195V25.6707C399.195 21.1963 401.705 18.9046 405.851 18.9046C407.488 18.9046 409.235 19.2319 410.653 20.2141V8.75537Z"
    fill="#240B36" />
  <path d="M431.188 30.5816H417.656V41.4947V79.3631H431.188V30.5816Z" fill="#240B36" />
  <path fill-rule="evenodd" clip-rule="evenodd"
    d="M419.691 24.1607L421.999 11.0825H433.217L430.909 24.1607H419.691Z" fill="#240B36" />
  <path fill-rule="evenodd" clip-rule="evenodd"
    d="M126.406 51.7646L126.415 51.7558L97.5814 22.9224L89.625 30.8788L110.514 51.7678L89.6282 72.6535L97.5847 80.61L126.418 51.7766L126.406 51.7646Z"
    fill="#C42323" />
  <path fill-rule="evenodd" clip-rule="evenodd"
    d="M60.4001 25.2567C57.1459 22.7177 56.481 18.0186 59.0333 14.7475C61.565 11.5026 66.2297 10.9867 69.4808 13.4571L74.0205 16.9991L81.9917 9.01078L76.2826 4.49217L76.2779 4.49819C68.0895 -1.72507 56.5263 -0.426021 50.1797 7.41467L49.7676 7.94285C43.6564 16.0713 45.2834 27.7255 53.4825 34.1228L53.4836 34.1237L53.4837 34.1236L54.4635 34.909C47.7412 38.5603 43.59 46.0619 44.584 54.1143C45.2935 59.8616 48.4772 64.6994 52.9354 67.6915L66.8347 78.2657L66.8287 78.2734L66.8299 78.2743C70.084 80.8133 70.7489 85.5124 68.1967 88.7835C65.665 92.0284 61.0004 92.5443 57.7493 90.074L53.2095 86.5319L45.2382 94.5202L50.9474 99.0388L50.9521 99.0328C59.1405 105.256 70.7037 103.957 77.0503 96.1163L77.4624 95.5882C83.5736 87.4597 81.9466 75.8055 73.7475 69.4082L73.7463 69.4073L73.7463 69.4074L72.764 68.62C79.4844 64.9681 83.6342 57.4676 82.6403 49.4164C81.933 43.6866 78.7666 38.8609 74.3297 35.8667L74.3302 35.8667L60.3953 25.2653L60.4013 25.2576L60.4001 25.2567ZM64.5429 59.3051C68.7669 58.7836 71.701 54.9557 71.1916 50.8297C70.6823 46.7037 66.9054 43.7042 62.6814 44.2256C58.4574 44.747 55.5234 48.575 56.0328 52.701C56.5421 56.827 60.3189 59.8265 64.5429 59.3051Z"
    fill="#C42323" />
  <path fill-rule="evenodd" clip-rule="evenodd"
    d="M0.82061 51.7646L0.811821 51.7558L29.6451 22.9224L37.6016 30.8788L16.7127 51.7678L37.5983 72.6535L29.6419 80.61L0.808601 51.7766L0.82061 51.7646Z"
    fill="#C42323" />
  <path
    d="M243.835 112.216H241.25L248.727 91.8521H251.273L258.75 112.216H256.165L250.08 95.0738H249.921L243.835 112.216ZM244.79 104.261H255.21V106.449H244.79V104.261Z"
    fill="#240B36" />
  <path
    d="M273.899 96.9431C273.779 95.9355 273.295 95.1533 272.447 94.5965C271.598 94.0397 270.558 93.7613 269.325 93.7613C268.423 93.7613 267.634 93.9071 266.958 94.1988C266.289 94.4904 265.765 94.8915 265.387 95.4019C265.016 95.9123 264.83 96.4924 264.83 97.142C264.83 97.6856 264.96 98.1529 265.218 98.544C265.483 98.9285 265.821 99.25 266.232 99.5085C266.643 99.7604 267.074 99.9692 267.525 100.135C267.976 100.294 268.39 100.423 268.768 100.523L270.836 101.08C271.366 101.219 271.956 101.411 272.606 101.656C273.262 101.902 273.889 102.236 274.485 102.661C275.089 103.078 275.586 103.615 275.977 104.271C276.368 104.928 276.563 105.733 276.563 106.688C276.563 107.788 276.275 108.782 275.698 109.671C275.128 110.559 274.293 111.265 273.193 111.789C272.099 112.312 270.77 112.574 269.205 112.574C267.747 112.574 266.484 112.339 265.417 111.868C264.356 111.397 263.521 110.741 262.911 109.899C262.308 109.057 261.967 108.08 261.887 106.966H264.433C264.499 107.735 264.757 108.371 265.208 108.875C265.666 109.372 266.242 109.744 266.938 109.989C267.641 110.227 268.397 110.347 269.205 110.347C270.147 110.347 270.992 110.194 271.741 109.889C272.49 109.578 273.083 109.147 273.521 108.597C273.958 108.04 274.177 107.39 274.177 106.648C274.177 105.972 273.988 105.422 273.61 104.997C273.232 104.573 272.735 104.228 272.119 103.963C271.502 103.698 270.836 103.466 270.12 103.267L267.614 102.551C266.024 102.094 264.764 101.441 263.836 100.592C262.908 99.7439 262.444 98.6335 262.444 97.2613C262.444 96.1212 262.752 95.1268 263.369 94.2783C263.992 93.4232 264.827 92.7603 265.874 92.2897C266.928 91.8124 268.105 91.5737 269.404 91.5737C270.717 91.5737 271.883 91.8091 272.904 92.2797C273.925 92.7437 274.734 93.3801 275.331 94.1888C275.934 94.9976 276.252 95.9157 276.285 96.9431H273.899Z"
    fill="#240B36" />
  <path
    d="M292.594 96.9431C292.475 95.9355 291.991 95.1533 291.143 94.5965C290.294 94.0397 289.253 93.7613 288.02 93.7613C287.119 93.7613 286.33 93.9071 285.654 94.1988C284.984 94.4904 284.461 94.8915 284.083 95.4019C283.712 95.9123 283.526 96.4924 283.526 97.142C283.526 97.6856 283.655 98.1529 283.914 98.544C284.179 98.9285 284.517 99.25 284.928 99.5085C285.339 99.7604 285.77 99.9692 286.221 100.135C286.671 100.294 287.086 100.423 287.464 100.523L289.532 101.08C290.062 101.219 290.652 101.411 291.302 101.656C291.958 101.902 292.584 102.236 293.181 102.661C293.784 103.078 294.281 103.615 294.673 104.271C295.064 104.928 295.259 105.733 295.259 106.688C295.259 107.788 294.971 108.782 294.394 109.671C293.824 110.559 292.989 111.265 291.888 111.789C290.795 112.312 289.466 112.574 287.901 112.574C286.443 112.574 285.18 112.339 284.113 111.868C283.052 111.397 282.217 110.741 281.607 109.899C281.004 109.057 280.662 108.08 280.583 106.966H283.128C283.195 107.735 283.453 108.371 283.904 108.875C284.361 109.372 284.938 109.744 285.634 109.989C286.337 110.227 287.092 110.347 287.901 110.347C288.842 110.347 289.688 110.194 290.437 109.889C291.186 109.578 291.779 109.147 292.217 108.597C292.654 108.04 292.873 107.39 292.873 106.648C292.873 105.972 292.684 105.422 292.306 104.997C291.928 104.573 291.431 104.228 290.815 103.963C290.198 103.698 289.532 103.466 288.816 103.267L286.31 102.551C284.719 102.094 283.46 101.441 282.532 100.592C281.604 99.7439 281.14 98.6335 281.14 97.2613C281.14 96.1212 281.448 95.1268 282.064 94.2783C282.688 93.4232 283.523 92.7603 284.57 92.2897C285.624 91.8124 286.801 91.5737 288.1 91.5737C289.413 91.5737 290.579 91.8091 291.6 92.2797C292.621 92.7437 293.43 93.3801 294.026 94.1888C294.629 94.9976 294.948 95.9157 294.981 96.9431H292.594Z"
    fill="#240B36" />
  <path
    d="M317.336 102.034C317.336 104.182 316.948 106.038 316.172 107.602C315.397 109.167 314.333 110.373 312.98 111.222C311.628 112.07 310.084 112.495 308.347 112.495C306.61 112.495 305.066 112.07 303.713 111.222C302.361 110.373 301.297 109.167 300.521 107.602C299.746 106.038 299.358 104.182 299.358 102.034C299.358 99.8864 299.746 98.0303 300.521 96.4659C301.297 94.9014 302.361 93.695 303.713 92.8465C305.066 91.998 306.61 91.5737 308.347 91.5737C310.084 91.5737 311.628 91.998 312.98 92.8465C314.333 93.695 315.397 94.9014 316.172 96.4659C316.948 98.0303 317.336 99.8864 317.336 102.034ZM314.949 102.034C314.949 100.271 314.654 98.7827 314.064 97.5696C313.481 96.3565 312.689 95.4384 311.688 94.8153C310.694 94.1921 309.58 93.8806 308.347 93.8806C307.114 93.8806 305.997 94.1921 304.996 94.8153C304.002 95.4384 303.21 96.3565 302.62 97.5696C302.036 98.7827 301.745 100.271 301.745 102.034C301.745 103.797 302.036 105.286 302.62 106.499C303.21 107.712 304.002 108.63 304.996 109.253C305.997 109.876 307.114 110.188 308.347 110.188C309.58 110.188 310.694 109.876 311.688 109.253C312.689 108.63 313.481 107.712 314.064 106.499C314.654 105.286 314.949 103.797 314.949 102.034Z"
    fill="#240B36" />
  <path
    d="M338.709 98.2159H336.243C336.097 97.5066 335.842 96.8835 335.477 96.3465C335.119 95.8096 334.682 95.3588 334.164 94.9942C333.654 94.623 333.087 94.3446 332.464 94.159C331.841 93.9734 331.191 93.8806 330.515 93.8806C329.282 93.8806 328.165 94.1921 327.164 94.8153C326.17 95.4384 325.378 96.3565 324.788 97.5696C324.205 98.7827 323.913 100.271 323.913 102.034C323.913 103.797 324.205 105.286 324.788 106.499C325.378 107.712 326.17 108.63 327.164 109.253C328.165 109.876 329.282 110.188 330.515 110.188C331.191 110.188 331.841 110.095 332.464 109.909C333.087 109.724 333.654 109.449 334.164 109.084C334.682 108.713 335.119 108.259 335.477 107.722C335.842 107.178 336.097 106.555 336.243 105.852H338.709C338.523 106.893 338.185 107.824 337.694 108.646C337.204 109.468 336.594 110.168 335.865 110.745C335.136 111.315 334.317 111.749 333.409 112.047C332.507 112.345 331.543 112.495 330.515 112.495C328.779 112.495 327.234 112.07 325.882 111.222C324.529 110.373 323.465 109.167 322.69 107.602C321.914 106.038 321.527 104.182 321.527 102.034C321.527 99.8864 321.914 98.0303 322.69 96.4659C323.465 94.9014 324.529 93.695 325.882 92.8465C327.234 91.998 328.779 91.5737 330.515 91.5737C331.543 91.5737 332.507 91.7229 333.409 92.0212C334.317 92.3195 335.136 92.757 335.865 93.3337C336.594 93.9038 337.204 94.5998 337.694 95.4218C338.185 96.2372 338.523 97.1685 338.709 98.2159Z"
    fill="#240B36" />
  <path d="M345.999 91.8521V112.216H343.533V91.8521H345.999Z" fill="#240B36" />
  <path
    d="M352.619 112.216H350.034L357.511 91.8521H360.056L367.534 112.216H364.949L358.863 95.0738H358.704L352.619 112.216ZM353.573 104.261H363.994V106.449H353.573V104.261Z"
    fill="#240B36" />
  <path d="M368.053 94.0397V91.8521H383.326V94.0397H376.923V112.216H374.457V94.0397H368.053Z"
    fill="#240B36" />
  <path d="M390.438 91.8521V112.216H387.972V91.8521H390.438Z" fill="#240B36" />
  <path
    d="M413.404 102.034C413.404 104.182 413.016 106.038 412.241 107.602C411.465 109.167 410.401 110.373 409.049 111.222C407.697 112.07 406.152 112.495 404.415 112.495C402.679 112.495 401.134 112.07 399.782 111.222C398.43 110.373 397.366 109.167 396.59 107.602C395.815 106.038 395.427 104.182 395.427 102.034C395.427 99.8864 395.815 98.0303 396.59 96.4659C397.366 94.9014 398.43 93.695 399.782 92.8465C401.134 91.998 402.679 91.5737 404.415 91.5737C406.152 91.5737 407.697 91.998 409.049 92.8465C410.401 93.695 411.465 94.9014 412.241 96.4659C413.016 98.0303 413.404 99.8864 413.404 102.034ZM411.018 102.034C411.018 100.271 410.723 98.7827 410.133 97.5696C409.55 96.3565 408.757 95.4384 407.756 94.8153C406.762 94.1921 405.648 93.8806 404.415 93.8806C403.183 93.8806 402.066 94.1921 401.065 94.8153C400.07 95.4384 399.278 96.3565 398.688 97.5696C398.105 98.7827 397.813 100.271 397.813 102.034C397.813 103.797 398.105 105.286 398.688 106.499C399.278 107.712 400.07 108.63 401.065 109.253C402.066 109.876 403.183 110.188 404.415 110.188C405.648 110.188 406.762 109.876 407.756 109.253C408.757 108.63 409.55 107.712 410.133 106.499C410.723 105.286 411.018 103.797 411.018 102.034Z"
    fill="#240B36" />
  <path
    d="M434.539 91.8521V112.216H432.152L421.055 96.2272H420.857V112.216H418.391V91.8521H420.777L431.914 107.881H432.112V91.8521H434.539Z"
    fill="#240B36" />
</svg>
